<?xml version="1.0" encoding="utf-8"?>
<!DOCTYPE svg PUBLIC "-//W3C//DTD SVG 1.0//EN" "http://www.w3.org/TR/2001/REC-SVG-20010904/DTD/svg10.dtd">
<svg version="1.0" xmlns="http://www.w3.org/2000/svg" width="1800px" height="375px" viewBox="0 0 1800 375" preserveAspectRatio="xMidYMid meet">
 <g fill="#000000">
  <path d="M139.6 293.4 c-1.4 -1.4 -1.6 -12.4 -1.6 -105.9 l0 -104.4 2.2 -1.5 c3.3 -2.4 46.3 -2.4 49.6 0 l2.2 1.5 0 104.4 0 104.4 -2.2 1.5 c-3.3 2.4 -47.9 2.4 -50.2 0z"/>
  <path d="M53.8 275.6 c-1.7 -1.2 -1.8 -6.6 -1.8 -87.8 0 -82.5 0.1 -86.6 1.8 -88.1 1.6 -1.5 4.8 -1.7 24.6 -1.7 19.2 0 23 0.2 25.1 1.6 l2.5 1.6 0 86.4 0 86.3 -2.2 1.5 c-3.1 2.2 -47.3 2.3 -50 0.2z"/>
  <path d="M226.2 275.4 l-2.2 -1.5 0 -86.3 0 -86.4 2.5 -1.6 c3.6 -2.3 45.9 -2.4 49.3 0 l2.2 1.5 0 86.4 0 86.4 -2.2 1.5 c-1.9 1.3 -6 1.6 -24.8 1.6 -18.8 0 -22.9 -0.3 -24.8 -1.6z"/>
  <path d="M899.8 243.8 c-9.7 -0.9 -16.6 -3.2 -23.3 -7.6 -16.9 -11.1 -25.6 -29.3 -24.2 -50.6 1.6 -24.2 14.2 -41.5 35.5 -48.8 9.7 -3.3 27.8 -3.3 37.4 0 21.4 7.4 33.9 24.7 35.4 48.7 1.7 26 -12.3 48.6 -34.6 56 -6.3 2.1 -18.2 3.1 -26.2 2.3z m21.9 -23.6 c5.1 -2.7 10.6 -9.2 12.6 -15.2 4.9 -14.7 2 -33.5 -6.4 -41.9 -5.7 -5.7 -11.1 -7.6 -21.4 -7.6 -7.9 0 -9.7 0.4 -14.8 2.8 -10.3 5.1 -15.1 15 -15.1 31.2 0.1 11.7 1.9 17.8 7.1 24.3 6 7.3 11.5 9.3 24.8 8.8 6.8 -0.2 10 -0.8 13.2 -2.4z"/>
  <path d="M1701.8 243.8 c-22.2 -2 -39.6 -17 -45.3 -38.8 -2.1 -8.1 -2.1 -23.5 0 -31.5 4.8 -17.9 17.2 -31.4 34 -36.8 5.6 -1.7 9.4 -2.2 18.5 -2.2 18 0 27.8 3.9 39.7 15.6 9.3 9.2 14.3 22.8 14.3 38.9 0 16 -4.3 28.3 -13.3 38.6 -10.7 12.2 -28 18 -47.9 16.2z m18.5 -22.2 c7.2 -2.6 11.5 -6.5 15 -13.5 3.1 -6.3 3.2 -7 3.2 -19.1 0 -11.6 -0.2 -12.9 -2.8 -18.2 -5.4 -11 -15.5 -16.5 -28.6 -15.6 -12.4 0.9 -20.7 6.4 -25.4 16.7 -1.8 3.9 -2.1 6.6 -2.2 17.1 0 11.5 0.2 13 2.6 18.1 3.6 7.7 9.2 12.6 16.9 15 4.1 1.2 17.2 0.9 21.3 -0.5z"/>
  <path d="M1006.5 242.5 c-13.7 -2.9 -24.2 -11 -28.6 -22 -2.4 -5.9 -2.4 -6.5 -2.7 -45.2 l-0.3 -39.3 12 0 12 0 0.3 37.3 c0.3 41 0.3 40.5 6.8 46 3.8 3.3 8.3 4.2 18.5 4 9.2 -0.1 14.1 -1.9 17.8 -6.3 4.6 -5.4 4.9 -8.4 5.4 -45.7 l0.5 -35.3 11.4 0 11.5 0 -0.3 39.3 c-0.3 38.2 -0.4 39.3 -2.6 44.8 -4.6 11.4 -15.1 19.5 -28.9 22.4 -8.4 1.8 -24.7 1.8 -32.8 0z"/>
  <path d="M343 189.5 l0 -53.5 23.5 0 c12.9 0 23.5 0.1 23.6 0.3 0 0.1 3.3 22.7 7.2 50.2 l7.2 50 3.6 0.3 3.5 0.3 6.8 -47.8 c3.8 -26.3 7 -49 7.3 -50.5 l0.6 -2.8 23.3 0 23.4 0 0 53.5 0 53.5 -11.5 0 -11.5 0 0 -38.2 c0 -33.3 0.3 -39.9 2 -50.3 1.1 -6.6 2 -12.3 2 -12.7 0 -0.5 -1.6 -0.8 -3.5 -0.8 -1.9 0 -3.5 0.3 -3.5 0.8 0 1 -14.9 95.1 -15.6 98.5 l-0.6 2.7 -23.1 -0.2 -23.1 -0.3 -8 -50.7 -8 -50.8 -3.3 0 c-4 0 -4 0.2 -1.3 16 1.7 10.1 2 16.1 2 48.8 l0 37.2 -11.5 0 -11.5 0 0 -53.5z"/>
  <path d="M485.2 241.8 c0.3 -0.7 7.2 -24.8 15.3 -53.6 l14.9 -52.2 26 0.2 26 0.3 15.3 53 c8.4 29.2 15.3 53.1 15.3 53.3 0 0.1 -5.6 0.2 -12.5 0.2 l-12.4 0 -0.9 -3.2 c-0.5 -1.8 -2.6 -9.7 -4.8 -17.6 l-3.9 -14.2 -22.4 0.2 -22.4 0.3 -4.7 17 -4.7 17 -12.2 0.3 c-9.7 0.2 -12.2 0 -11.9 -1z m71.8 -55 c0 -0.7 -2.8 -11.3 -6.2 -23.6 l-6.2 -22.3 -3.5 0.3 -3.5 0.3 -6.3 22.5 c-3.4 12.4 -6.3 22.8 -6.3 23.3 0 0.4 7.2 0.7 16 0.7 12.1 0 16 -0.3 16 -1.2z"/>
  <path d="M609 189.5 l0 -53.5 24.5 0 c39.6 0 51.8 4.1 58.7 19.8 4.1 9.2 3.9 27.1 -0.5 36.5 -6.2 13.6 -16.9 18.3 -43.9 19.4 l-15.8 0.6 0 15.4 0 15.3 -11.5 0 -11.5 0 0 -53.5z m52.9 -0.2 c7.6 -2.4 9.6 -5.7 9.6 -15.5 0 -6.2 -0.4 -8.2 -2.1 -10.5 -3.7 -5 -6.6 -5.8 -22.6 -6.1 l-14.8 -0.4 0 17.1 0 17.1 12.4 0 c8.8 0 13.9 -0.5 17.5 -1.7z"/>
  <path d="M786 221.5 l0 -21.5 -6.3 0 -6.4 0 -11.8 -28.7 c-6.5 -15.9 -12.5 -30.3 -13.2 -32 l-1.3 -3.3 12.4 0 12.3 0 11.3 29.5 11.3 29.5 3.7 0 3.7 0 11.3 -29.5 11.3 -29.5 12.5 0 c11.4 0 12.4 0.1 11.7 1.8 -0.3 0.9 -6.3 15.3 -13.2 32 l-12.7 30.2 -6.3 0 -6.3 0 0 21.5 0 21.5 -12 0 -12 0 0 -21.5z"/>
  <path d="M1090 189.5 l0 -53.5 26.3 0 c28.4 0.1 37.4 0.8 46.3 4 13.1 4.6 18.4 11.5 18.4 24 -0.1 12 -5.9 19.3 -18.2 22.7 -5.6 1.6 -5.8 1.8 -5.8 5 l0 3.3 7.6 0 c9.2 0 13.6 1.8 15.8 6.5 1.3 2.6 1.6 7.1 1.6 22.4 l0 19.1 -11.5 0 -11.5 0 0 -19 0 -19 -22.5 0 -22.5 0 0 19 0 19 -12 0 -12 0 0 -53.5z m59.1 -6.5 c5.2 -1.4 7.9 -4.8 8.5 -10.7 0.5 -3.5 0.2 -6 -1 -8.4 -2.8 -6 -4.2 -6.4 -24.3 -6.7 l-18.3 -0.4 0 13.6 0 13.6 15.8 0 c8.6 0 17.3 -0.5 19.3 -1z"/>
  <path d="M1264.4 237.3 c-1 -3.2 -7.9 -27.2 -15.4 -53.3 l-13.6 -47.5 11.9 -0.3 c6.6 -0.1 12.2 -0.1 12.4 0.2 0.3 0.3 25.8 89.9 27.9 98.4 0.5 1.8 1.3 2.2 4.3 2.2 l3.6 0 14 -50.5 14 -50.5 12.4 0 c9.4 0 12.2 0.3 11.9 1.2 -0.3 0.7 -7.2 24.8 -15.3 53.6 l-14.9 52.2 -25.8 0 -25.7 0 -1.7 -5.7z"/>
  <path d="M1359 232.5 l0 -10.5 12 0 12 0 0 -32.5 0 -32.5 -12 0 -12 0 0 -10.5 0 -10.5 36 0 36 0 0 10.5 0 10.5 -12.5 0 -12.5 0 0 32.5 0 32.5 12.5 0 12.5 0 0 10.5 0 10.5 -36 0 -36 0 0 -10.5z"/>
  <path d="M1449 189.5 l0 -53.7 28.3 0.5 c30.4 0.4 34.6 1 45.7 6.4 5.9 2.9 14 10.5 16.6 15.5 4.3 8.2 5.6 14.3 6.1 27.3 0.8 20.7 -2.2 31.6 -11.5 41.6 -11.3 12.3 -20.8 14.8 -58.9 15.6 l-26.3 0.6 0 -53.8z m58.2 30.5 c11.2 -3.3 16.9 -16.5 15.4 -35.5 -0.8 -10.5 -2.8 -16 -7.4 -20.8 -5.3 -5.4 -10.6 -6.7 -27.9 -6.7 l-14.3 0 0 32.6 0 32.7 15.3 -0.6 c8.3 -0.3 16.9 -1 18.9 -1.7z"/>
  <path d="M1562 189.5 l0 -53.5 41 0 41 0 0 10.5 0 10.5 -29 0 -29 0 0 11 0 11 25 0 25 0 0 10 0 10 -25 0 -25 0 0 11.5 0 11.5 29 0 29 0 0 10.5 0 10.5 -41 0 -41 0 0 -53.5z"/>
 </g>
</svg>