<svg xmlns="http://www.w3.org/2000/svg" xmlns:xlink="http://www.w3.org/1999/xlink" width="1200" zoomAndPan="magnify" viewBox="0 0 900 470.999988" height="628" preserveAspectRatio="xMidYMid meet" version="1.0"><defs><g/><clipPath id="aba2afaade"><path d="M 30.214844 49.367188 L 147.328125 49.367188 L 147.328125 421.78125 L 30.214844 421.78125 Z M 30.214844 49.367188 " clip-rule="nonzero"/></clipPath><clipPath id="f529fef1ed"><path d="M 147.328125 61.738281 L 147.328125 409.070312 C 147.328125 412.355469 146.023438 415.5 143.703125 417.820312 C 141.378906 420.140625 138.234375 421.445312 134.953125 421.445312 L 42.1875 421.445312 C 38.902344 421.445312 35.753906 420.140625 33.433594 417.820312 C 31.113281 415.5 29.8125 412.355469 29.8125 409.070312 L 29.8125 61.738281 C 29.8125 58.460938 31.113281 55.308594 33.433594 52.988281 C 35.753906 50.667969 38.902344 49.367188 42.1875 49.367188 L 134.953125 49.367188 C 138.234375 49.367188 141.378906 50.667969 143.703125 52.988281 C 146.023438 55.308594 147.328125 58.460938 147.328125 61.738281 Z M 147.328125 61.738281 " clip-rule="nonzero"/></clipPath><clipPath id="0b47e15768"><path d="M 165.40625 49.367188 L 282.523438 49.367188 L 282.523438 421.78125 L 165.40625 421.78125 Z M 165.40625 49.367188 " clip-rule="nonzero"/></clipPath><clipPath id="adf7a76299"><path d="M 282.523438 61.738281 L 282.523438 409.070312 C 282.523438 412.355469 281.21875 415.5 278.898438 417.820312 C 276.578125 420.140625 273.429688 421.445312 270.148438 421.445312 L 177.378906 421.445312 C 174.101562 421.445312 170.949219 420.140625 168.628906 417.820312 C 166.308594 415.5 165.007812 412.355469 165.007812 409.070312 L 165.007812 61.738281 C 165.007812 58.460938 166.308594 55.308594 168.628906 52.988281 C 170.949219 50.667969 174.101562 49.367188 177.378906 49.367188 L 270.148438 49.367188 C 273.429688 49.367188 276.578125 50.667969 278.898438 52.988281 C 281.21875 55.308594 282.523438 58.460938 282.523438 61.738281 Z M 282.523438 61.738281 " clip-rule="nonzero"/></clipPath><clipPath id="8780133bab"><path d="M 300.496094 49.367188 L 417.613281 49.367188 L 417.613281 421.78125 L 300.496094 421.78125 Z M 300.496094 49.367188 " clip-rule="nonzero"/></clipPath><clipPath id="5dab414306"><path d="M 417.613281 61.738281 L 417.613281 409.070312 C 417.613281 412.355469 416.304688 415.5 413.984375 417.820312 C 411.664062 420.140625 408.519531 421.445312 405.238281 421.445312 L 312.46875 421.445312 C 309.191406 421.445312 306.039062 420.140625 303.71875 417.820312 C 301.398438 415.5 300.097656 412.355469 300.097656 409.070312 L 300.097656 61.738281 C 300.097656 58.460938 301.398438 55.308594 303.71875 52.988281 C 306.039062 50.667969 309.191406 49.367188 312.46875 49.367188 L 405.238281 49.367188 C 408.519531 49.367188 411.664062 50.667969 413.984375 52.988281 C 416.304688 55.308594 417.613281 58.460938 417.613281 61.738281 Z M 417.613281 61.738281 " clip-rule="nonzero"/></clipPath><clipPath id="fbb50de0ee"><rect x="0" width="321" y="0" height="341"/></clipPath></defs><g clip-path="url(#aba2afaade)"><g clip-path="url(#f529fef1ed)"><path stroke-linecap="butt" transform="matrix(0, 1.171133, -1.171133, 0, 147.326339, 49.360602)" fill="none" stroke-linejoin="miter" d="M 10.568982 -0.00152487 L 307.14688 -0.00152487 C 309.951991 -0.00152487 312.637025 1.112514 314.618281 3.093769 C 316.599536 5.07836 317.713575 7.763395 317.713575 10.56517 L 317.713575 89.775354 C 317.713575 92.580464 316.599536 95.268834 314.618281 97.250089 C 312.637025 99.231345 309.951991 100.342048 307.14688 100.342048 L 10.568982 100.342048 C 7.770542 100.342048 5.078837 99.231345 3.097582 97.250089 C 1.116327 95.268834 0.00562295 92.580464 0.00562295 89.775354 L 0.00562295 10.56517 C 0.00562295 7.763395 1.116327 5.07836 3.097582 3.093769 C 5.078837 1.112514 7.770542 -0.00152487 10.568982 -0.00152487 Z M 10.568982 -0.00152487 " stroke="#000000" stroke-width="28.177999" stroke-opacity="1" stroke-miterlimit="4"/></g></g><g clip-path="url(#0b47e15768)"><g clip-path="url(#adf7a76299)"><path stroke-linecap="butt" transform="matrix(0, 1.171133, -1.171133, 0, 282.521858, 49.360602)" fill="none" stroke-linejoin="miter" d="M 10.568982 -0.00134861 L 307.14688 -0.00134861 C 309.951991 -0.00134861 312.637025 1.112691 314.618281 3.093946 C 316.599536 5.075201 317.713575 7.763571 317.713575 10.565346 L 317.713575 89.778865 C 317.713575 92.577305 316.599536 95.26901 314.618281 97.250266 C 312.637025 99.231521 309.951991 100.342225 307.14688 100.342225 L 10.568982 100.342225 C 7.770542 100.342225 5.078837 99.231521 3.097582 97.250266 C 1.116327 95.26901 0.00562295 92.577305 0.00562295 89.778865 L 0.00562295 10.565346 C 0.00562295 7.763571 1.116327 5.075201 3.097582 3.093946 C 5.078837 1.112691 7.770542 -0.00134861 10.568982 -0.00134861 Z M 10.568982 -0.00134861 " stroke="#000000" stroke-width="28.177999" stroke-opacity="1" stroke-miterlimit="4"/></g></g><g clip-path="url(#8780133bab)"><g clip-path="url(#5dab414306)"><path stroke-linecap="butt" transform="matrix(0, 1.171133, -1.171133, 0, 417.611239, 49.360602)" fill="none" stroke-linejoin="miter" d="M 10.568982 -0.00174346 L 307.14688 -0.00174346 C 309.951991 -0.00174346 312.637025 1.115631 314.618281 3.096886 C 316.599536 5.078142 317.713575 7.763176 317.713575 10.564951 L 317.713575 89.778471 C 317.713575 92.580246 316.599536 95.268615 314.618281 97.249871 C 312.637025 99.231126 309.951991 100.34183 307.14688 100.34183 L 10.568982 100.34183 C 7.770542 100.34183 5.078837 99.231126 3.097582 97.249871 C 1.116327 95.268615 0.00562295 92.580246 0.00562295 89.778471 L 0.00562295 10.564951 C 0.00562295 7.763176 1.116327 5.078142 3.097582 3.096886 C 5.078837 1.115631 7.770542 -0.00174346 10.568982 -0.00174346 Z M 10.568982 -0.00174346 " stroke="#000000" stroke-width="28.177999" stroke-opacity="1" stroke-miterlimit="4"/></g></g><g transform="matrix(1, 0, 0, 1, 487, 65)"><g clip-path="url(#fbb50de0ee)"><g fill="#000000" fill-opacity="1"><g transform="translate(0.318426, 66.179614)"><g><path d="M 5.546875 -64.078125 L 34.359375 -64.078125 L 42.984375 -3.71875 L 46.625 -3.71875 L 55.265625 -64.078125 L 83.796875 -64.078125 L 83.796875 0 L 69.265625 0 L 69.265625 -43.265625 L 71.890625 -60.34375 L 68.34375 -60.34375 L 58.8125 0 L 30.546875 0 L 21 -60.34375 L 17.265625 -60.34375 L 20.09375 -43.265625 L 20.09375 0 L 5.546875 0 Z M 5.546875 -64.078125 "/></g></g></g><g fill="#000000" fill-opacity="1"><g transform="translate(89.668489, 66.179614)"><g><path d="M 19.265625 -64.078125 L 50.625 -64.078125 L 69.078125 0 L 53.625 0 L 47.90625 -20.546875 L 21.8125 -20.546875 L 16.09375 0 L 0.90625 0 Z M 44.265625 -33.265625 L 36.71875 -60.34375 L 33 -60.34375 L 25.453125 -33.265625 Z M 44.265625 -33.265625 "/></g></g></g><g fill="#000000" fill-opacity="1"><g transform="translate(159.203368, 66.179614)"><g><path d="M 5.546875 -64.078125 L 29.171875 -64.078125 C 38.992188 -64.078125 46.207031 -62.300781 50.8125 -58.75 C 55.414062 -55.207031 57.71875 -49.378906 57.71875 -41.265625 C 57.71875 -33.140625 55.414062 -27.304688 50.8125 -23.765625 C 46.207031 -20.222656 38.992188 -18.453125 29.171875 -18.453125 L 20.09375 -18.453125 L 20.09375 0 L 5.546875 0 Z M 30.078125 -31.171875 C 34.628906 -31.171875 37.945312 -31.894531 40.03125 -33.34375 C 42.125 -34.800781 43.171875 -37.441406 43.171875 -41.265625 C 43.171875 -45.078125 42.125 -47.710938 40.03125 -49.171875 C 37.945312 -50.628906 34.628906 -51.359375 30.078125 -51.359375 L 20.09375 -51.359375 L 20.09375 -31.171875 Z M 30.078125 -31.171875 "/></g></g></g><g fill="#000000" fill-opacity="1"><g transform="translate(0.318426, 192.678322)"><g><path d="M 63.625 -64.078125 L 47.359375 -25.265625 L 39.8125 -25.265625 L 39.8125 0 L 25.265625 0 L 25.265625 -25.265625 L 17.625 -25.265625 L 1.546875 -64.078125 L 17.09375 -64.078125 L 30.625 -28.625 L 34.359375 -28.625 L 47.984375 -64.078125 Z M 63.625 -64.078125 "/></g></g></g><g fill="#000000" fill-opacity="1"><g transform="translate(61.490829, 192.678322)"><g><path d="M 3.265625 -32.078125 C 3.265625 -38.378906 4.597656 -44.046875 7.265625 -49.078125 C 9.929688 -54.109375 13.75 -58.0625 18.71875 -60.9375 C 23.6875 -63.820312 29.503906 -65.265625 36.171875 -65.265625 C 42.773438 -65.265625 48.5625 -63.820312 53.53125 -60.9375 C 58.5 -58.0625 62.300781 -54.109375 64.9375 -49.078125 C 67.570312 -44.046875 68.890625 -38.378906 68.890625 -32.078125 C 68.890625 -25.773438 67.570312 -20.09375 64.9375 -15.03125 C 62.300781 -9.976562 58.5 -6.007812 53.53125 -3.125 C 48.5625 -0.25 42.773438 1.1875 36.171875 1.1875 C 29.503906 1.1875 23.6875 -0.25 18.71875 -3.125 C 13.75 -6.007812 9.929688 -9.976562 7.265625 -15.03125 C 4.597656 -20.09375 3.265625 -25.773438 3.265625 -32.078125 Z M 18.265625 -32.078125 C 18.265625 -25.722656 19.78125 -20.785156 22.8125 -17.265625 C 25.84375 -13.753906 30.296875 -12 36.171875 -12 C 41.992188 -12 46.398438 -13.753906 49.390625 -17.265625 C 52.390625 -20.785156 53.890625 -25.722656 53.890625 -32.078125 C 53.890625 -38.441406 52.390625 -43.378906 49.390625 -46.890625 C 46.398438 -50.410156 41.992188 -52.171875 36.171875 -52.171875 C 30.359375 -52.171875 25.921875 -50.394531 22.859375 -46.84375 C 19.796875 -43.300781 18.265625 -38.378906 18.265625 -32.078125 Z M 18.265625 -32.078125 "/></g></g></g><g fill="#000000" fill-opacity="1"><g transform="translate(134.025278, 192.678322)"><g><path d="M 4 -64.078125 L 18.625 -64.078125 L 18.625 -30.265625 C 18.625 -25.785156 18.910156 -22.285156 19.484375 -19.765625 C 20.066406 -17.253906 21.390625 -15.285156 23.453125 -13.859375 C 25.515625 -12.429688 28.664062 -11.71875 32.90625 -11.71875 C 37.144531 -11.71875 40.304688 -12.429688 42.390625 -13.859375 C 44.484375 -15.285156 45.832031 -17.269531 46.4375 -19.8125 C 47.050781 -22.351562 47.359375 -25.835938 47.359375 -30.265625 L 47.359375 -64.078125 L 61.984375 -64.078125 L 61.984375 -23.8125 C 61.984375 -15.75 59.5 -9.582031 54.53125 -5.3125 C 49.5625 -1.039062 42.351562 1.09375 32.90625 1.09375 C 23.445312 1.09375 16.265625 -1.039062 11.359375 -5.3125 C 6.453125 -9.582031 4 -15.75 4 -23.8125 Z M 4 -64.078125 "/></g></g></g><g fill="#000000" fill-opacity="1"><g transform="translate(201.196933, 192.678322)"><g><path d="M 5.546875 -64.078125 L 32.71875 -64.078125 C 41.207031 -64.078125 47.960938 -62.847656 52.984375 -60.390625 C 58.015625 -57.941406 60.53125 -53.472656 60.53125 -46.984375 C 60.53125 -42.316406 59.132812 -38.90625 56.34375 -36.75 C 53.5625 -34.601562 50.203125 -33.226562 46.265625 -32.625 L 46.265625 -29 L 53.171875 -29 C 55.710938 -29 57.664062 -28.238281 59.03125 -26.71875 C 60.394531 -25.207031 61.078125 -23.054688 61.078125 -20.265625 L 61.078125 0 L 46.625 0 L 46.625 -22.546875 L 20.171875 -22.546875 L 20.171875 0 L 5.546875 0 Z M 32.71875 -35.265625 C 35.875 -35.265625 38.359375 -35.429688 40.171875 -35.765625 C 41.992188 -36.097656 43.414062 -36.851562 44.4375 -38.03125 C 45.46875 -39.21875 45.984375 -41.023438 45.984375 -43.453125 C 45.984375 -45.804688 45.453125 -47.554688 44.390625 -48.703125 C 43.335938 -49.859375 41.914062 -50.585938 40.125 -50.890625 C 38.34375 -51.203125 35.875 -51.359375 32.71875 -51.359375 L 20.171875 -51.359375 L 20.171875 -35.265625 Z M 32.71875 -35.265625 "/></g></g></g><g fill="#000000" fill-opacity="1"><g transform="translate(0.318426, 319.177029)"><g><path d="M 0.90625 -64.078125 L 16.265625 -64.078125 L 33.265625 -3.71875 L 37 -3.71875 L 53.8125 -64.078125 L 69.078125 -64.078125 L 50.71875 0 L 19.359375 0 Z M 0.90625 -64.078125 "/></g></g></g><g fill="#000000" fill-opacity="1"><g transform="translate(70.762288, 319.177029)"><g><path d="M 47.90625 -64.078125 L 47.90625 -51.359375 L 33.359375 -51.359375 L 33.359375 -12.8125 L 47.90625 -12.8125 L 47.90625 0 L 4.265625 0 L 4.265625 -12.8125 L 18.8125 -12.8125 L 18.8125 -51.359375 L 4.265625 -51.359375 L 4.265625 -64.078125 Z M 47.90625 -64.078125 "/></g></g></g><g fill="#000000" fill-opacity="1"><g transform="translate(123.481568, 319.177029)"><g><path d="M 5.546875 -64.078125 L 29.078125 -64.078125 C 35.742188 -64.078125 41.625 -63.257812 46.71875 -61.625 C 51.8125 -59.988281 55.976562 -56.804688 59.21875 -52.078125 C 62.457031 -47.347656 64.078125 -40.679688 64.078125 -32.078125 C 64.078125 -23.421875 62.457031 -16.726562 59.21875 -12 C 55.976562 -7.269531 51.8125 -4.085938 46.71875 -2.453125 C 41.625 -0.816406 35.742188 0 29.078125 0 L 5.546875 0 Z M 29.078125 -12.8125 C 33.691406 -12.8125 37.375 -13.175781 40.125 -13.90625 C 42.882812 -14.632812 45.125 -16.375 46.84375 -19.125 C 48.570312 -21.882812 49.4375 -26.203125 49.4375 -32.078125 C 49.4375 -37.898438 48.554688 -42.203125 46.796875 -44.984375 C 45.046875 -47.773438 42.804688 -49.535156 40.078125 -50.265625 C 37.359375 -50.992188 33.691406 -51.359375 29.078125 -51.359375 L 20.09375 -51.359375 L 20.09375 -12.8125 Z M 29.078125 -12.8125 "/></g></g></g><g fill="#000000" fill-opacity="1"><g transform="translate(190.834976, 319.177029)"><g><path d="M 5.546875 -64.078125 L 54.984375 -64.078125 L 54.984375 -51.359375 L 20.171875 -51.359375 L 20.171875 -38.171875 L 50.4375 -38.171875 L 50.4375 -26.078125 L 20.171875 -26.078125 L 20.171875 -12.71875 L 54.984375 -12.71875 L 54.984375 0 L 5.546875 0 Z M 5.546875 -64.078125 "/></g></g></g><g fill="#000000" fill-opacity="1"><g transform="translate(248.189861, 319.177029)"><g><path d="M 3.265625 -32.078125 C 3.265625 -38.378906 4.597656 -44.046875 7.265625 -49.078125 C 9.929688 -54.109375 13.75 -58.0625 18.71875 -60.9375 C 23.6875 -63.820312 29.503906 -65.265625 36.171875 -65.265625 C 42.773438 -65.265625 48.5625 -63.820312 53.53125 -60.9375 C 58.5 -58.0625 62.300781 -54.109375 64.9375 -49.078125 C 67.570312 -44.046875 68.890625 -38.378906 68.890625 -32.078125 C 68.890625 -25.773438 67.570312 -20.09375 64.9375 -15.03125 C 62.300781 -9.976562 58.5 -6.007812 53.53125 -3.125 C 48.5625 -0.25 42.773438 1.1875 36.171875 1.1875 C 29.503906 1.1875 23.6875 -0.25 18.71875 -3.125 C 13.75 -6.007812 9.929688 -9.976562 7.265625 -15.03125 C 4.597656 -20.09375 3.265625 -25.773438 3.265625 -32.078125 Z M 18.265625 -32.078125 C 18.265625 -25.722656 19.78125 -20.785156 22.8125 -17.265625 C 25.84375 -13.753906 30.296875 -12 36.171875 -12 C 41.992188 -12 46.398438 -13.753906 49.390625 -17.265625 C 52.390625 -20.785156 53.890625 -25.722656 53.890625 -32.078125 C 53.890625 -38.441406 52.390625 -43.378906 49.390625 -46.890625 C 46.398438 -50.410156 41.992188 -52.171875 36.171875 -52.171875 C 30.359375 -52.171875 25.921875 -50.394531 22.859375 -46.84375 C 19.796875 -43.300781 18.265625 -38.378906 18.265625 -32.078125 Z M 18.265625 -32.078125 "/></g></g></g></g></g></svg>