<svg xmlns="http://www.w3.org/2000/svg" xmlns:xlink="http://www.w3.org/1999/xlink" width="1800" zoomAndPan="magnify" viewBox="0 0 1350 281.25" height="375" preserveAspectRatio="xMidYMid meet" version="1.0"><defs><g/><clipPath id="3490ac99a2"><path d="M 1.796875 35 L 1327 35 L 1327 246 L 1.796875 246 Z M 1.796875 35 " clip-rule="nonzero"/></clipPath><clipPath id="ae16fd9048"><path d="M 7.285156 10.636719 L 66.886719 10.636719 L 66.886719 200.179688 L 7.285156 200.179688 Z M 7.285156 10.636719 " clip-rule="nonzero"/></clipPath><clipPath id="c42c29dc28"><path d="M 66.886719 16.933594 L 66.886719 193.710938 C 66.886719 195.382812 66.226562 196.980469 65.042969 198.164062 C 63.863281 199.34375 62.261719 200.007812 60.589844 200.007812 L 13.375 200.007812 C 11.707031 200.007812 10.101562 199.34375 8.921875 198.164062 C 7.742188 196.980469 7.078125 195.382812 7.078125 193.710938 L 7.078125 16.933594 C 7.078125 15.265625 7.742188 13.660156 8.921875 12.480469 C 10.101562 11.300781 11.707031 10.636719 13.375 10.636719 L 60.589844 10.636719 C 62.261719 10.636719 63.863281 11.300781 65.042969 12.480469 C 66.226562 13.660156 66.886719 15.265625 66.886719 16.933594 Z M 66.886719 16.933594 " clip-rule="nonzero"/></clipPath><clipPath id="f8a470940b"><path d="M 76.089844 10.636719 L 135.699219 10.636719 L 135.699219 200.179688 L 76.089844 200.179688 Z M 76.089844 10.636719 " clip-rule="nonzero"/></clipPath><clipPath id="dd9a75bd01"><path d="M 135.699219 16.933594 L 135.699219 193.710938 C 135.699219 195.382812 135.03125 196.980469 133.851562 198.164062 C 132.671875 199.34375 131.070312 200.007812 129.398438 200.007812 L 82.183594 200.007812 C 80.515625 200.007812 78.914062 199.34375 77.730469 198.164062 C 76.550781 196.980469 75.886719 195.382812 75.886719 193.710938 L 75.886719 16.933594 C 75.886719 15.265625 76.550781 13.660156 77.730469 12.480469 C 78.914062 11.300781 80.515625 10.636719 82.183594 10.636719 L 129.398438 10.636719 C 131.070312 10.636719 132.671875 11.300781 133.851562 12.480469 C 135.03125 13.660156 135.699219 15.265625 135.699219 16.933594 Z M 135.699219 16.933594 " clip-rule="nonzero"/></clipPath><clipPath id="851f547e21"><path d="M 144.84375 10.636719 L 204.453125 10.636719 L 204.453125 200.179688 L 144.84375 200.179688 Z M 144.84375 10.636719 " clip-rule="nonzero"/></clipPath><clipPath id="f32a2af334"><path d="M 204.453125 16.933594 L 204.453125 193.710938 C 204.453125 195.382812 203.789062 196.980469 202.605469 198.164062 C 201.425781 199.34375 199.824219 200.007812 198.152344 200.007812 L 150.9375 200.007812 C 149.269531 200.007812 147.667969 199.34375 146.484375 198.164062 C 145.304688 196.980469 144.640625 195.382812 144.640625 193.710938 L 144.640625 16.933594 C 144.640625 15.265625 145.304688 13.660156 146.484375 12.480469 C 147.667969 11.300781 149.269531 10.636719 150.9375 10.636719 L 198.152344 10.636719 C 199.824219 10.636719 201.425781 11.300781 202.605469 12.480469 C 203.789062 13.660156 204.453125 15.265625 204.453125 16.933594 Z M 204.453125 16.933594 " clip-rule="nonzero"/></clipPath><clipPath id="380dfdff32"><path d="M 249 63 L 1325.421875 63 L 1325.421875 174 L 249 174 Z M 249 63 " clip-rule="nonzero"/></clipPath><clipPath id="ec276a2908"><rect x="0" width="1077" y="0" height="111"/></clipPath><clipPath id="c7911a4060"><rect x="0" width="1326" y="0" height="211"/></clipPath></defs><g clip-path="url(#3490ac99a2)"><g transform="matrix(1, 0, 0, 1, 1, 35)"><g clip-path="url(#c7911a4060)"><g clip-path="url(#ae16fd9048)"><g clip-path="url(#c42c29dc28)"><path stroke-linecap="butt" transform="matrix(0, 0.596056, -0.596056, 0, 66.888486, 10.633322)" fill="none" stroke-linejoin="miter" d="M 10.569934 0.00296503 L 307.148387 0.00296503 C 309.953283 0.00296503 312.640216 1.110506 314.619372 3.096215 C 316.598528 5.075371 317.712622 7.762304 317.712622 10.5672 L 317.712622 89.779304 C 317.712622 92.577647 316.598528 95.271134 314.619372 97.250289 C 312.640216 99.229445 309.953283 100.343539 307.148387 100.343539 L 10.569934 100.343539 C 7.771592 100.343539 5.078105 99.229445 3.098949 97.250289 C 1.119793 95.271134 0.00569905 92.577647 0.00569905 89.779304 L 0.00569905 10.5672 C 0.00569905 7.762304 1.119793 5.075371 3.098949 3.096215 C 5.078105 1.110506 7.771592 0.00296503 10.569934 0.00296503 Z M 10.569934 0.00296503 " stroke="#000000" stroke-width="28.177999" stroke-opacity="1" stroke-miterlimit="4"/></g></g><g clip-path="url(#f8a470940b)"><g clip-path="url(#dd9a75bd01)"><path stroke-linecap="butt" transform="matrix(0, 0.596056, -0.596056, 0, 135.697177, 10.633322)" fill="none" stroke-linejoin="miter" d="M 10.569934 -0.00342617 L 307.148387 -0.00342617 C 309.953283 -0.00342617 312.640216 1.117222 314.619372 3.096377 C 316.598528 5.075533 317.712622 7.762466 317.712622 10.567363 L 317.712622 89.779466 C 317.712622 92.577809 316.598528 95.271296 314.619372 97.250452 C 312.640216 99.229607 309.953283 100.343702 307.148387 100.343702 L 10.569934 100.343702 C 7.771592 100.343702 5.078105 99.229607 3.098949 97.250452 C 1.119793 95.271296 0.00569905 92.577809 0.00569905 89.779466 L 0.00569905 10.567363 C 0.00569905 7.762466 1.119793 5.075533 3.098949 3.096377 C 5.078105 1.117222 7.771592 -0.00342617 10.569934 -0.00342617 Z M 10.569934 -0.00342617 " stroke="#000000" stroke-width="28.177999" stroke-opacity="1" stroke-miterlimit="4"/></g></g><g clip-path="url(#851f547e21)"><g clip-path="url(#f32a2af334)"><path stroke-linecap="butt" transform="matrix(0, 0.596056, -0.596056, 0, 204.451822, 10.633322)" fill="none" stroke-linejoin="miter" d="M 10.569934 -0.00218676 L 307.148387 -0.00218676 C 309.953283 -0.00218676 312.640216 1.111908 314.619372 3.097617 C 316.598528 5.076772 317.712622 7.763706 317.712622 10.568602 L 317.712622 89.780706 C 317.712622 92.579048 316.598528 95.265982 314.619372 97.251691 C 312.640216 99.230847 309.953283 100.344941 307.148387 100.344941 L 10.569934 100.344941 C 7.771592 100.344941 5.078105 99.230847 3.098949 97.251691 C 1.119793 95.265982 0.00569905 92.579048 0.00569905 89.780706 L 0.00569905 10.568602 C 0.00569905 7.763706 1.119793 5.076772 3.098949 3.097617 C 5.078105 1.111908 7.771592 -0.00218676 10.569934 -0.00218676 Z M 10.569934 -0.00218676 " stroke="#000000" stroke-width="28.177999" stroke-opacity="1" stroke-miterlimit="4"/></g></g><g clip-path="url(#380dfdff32)"><g transform="matrix(1, 0, 0, 1, 249, 63)"><g clip-path="url(#ec276a2908)"><g fill="#000000" fill-opacity="1"><g transform="translate(0.882756, 83.432321)"><g><path d="M 6.953125 -80.359375 L 43.09375 -80.359375 L 53.921875 -4.671875 L 58.46875 -4.671875 L 69.296875 -80.359375 L 105.09375 -80.359375 L 105.09375 0 L 86.859375 0 L 86.859375 -54.25 L 90.15625 -75.6875 L 85.71875 -75.6875 L 73.75 0 L 38.296875 0 L 26.328125 -75.6875 L 21.65625 -75.6875 L 25.1875 -54.25 L 25.1875 0 L 6.953125 0 Z M 6.953125 -80.359375 "/></g></g></g><g fill="#000000" fill-opacity="1"><g transform="translate(112.927461, 83.432321)"><g><path d="M 24.171875 -80.359375 L 63.484375 -80.359375 L 86.625 0 L 67.25 0 L 60.0625 -25.765625 L 27.359375 -25.765625 L 20.171875 0 L 1.140625 0 Z M 55.515625 -41.71875 L 46.046875 -75.6875 L 41.375 -75.6875 L 31.921875 -41.71875 Z M 55.515625 -41.71875 "/></g></g></g><g fill="#000000" fill-opacity="1"><g transform="translate(200.123987, 83.432321)"><g><path d="M 6.953125 -80.359375 L 36.59375 -80.359375 C 48.894531 -80.359375 57.929688 -78.132812 63.703125 -73.6875 C 69.484375 -69.238281 72.375 -61.925781 72.375 -51.75 C 72.375 -41.5625 69.484375 -34.242188 63.703125 -29.796875 C 57.929688 -25.359375 48.894531 -23.140625 36.59375 -23.140625 L 25.1875 -23.140625 L 25.1875 0 L 6.953125 0 Z M 37.734375 -39.09375 C 43.429688 -39.09375 47.585938 -40.003906 50.203125 -41.828125 C 52.828125 -43.648438 54.140625 -46.957031 54.140625 -51.75 C 54.140625 -56.539062 52.828125 -59.847656 50.203125 -61.671875 C 47.585938 -63.492188 43.429688 -64.40625 37.734375 -64.40625 L 25.1875 -64.40625 L 25.1875 -39.09375 Z M 37.734375 -39.09375 "/></g></g></g><g fill="#000000" fill-opacity="1"><g transform="translate(275.46637, 83.432321)"><g/></g></g><g fill="#000000" fill-opacity="1"><g transform="translate(307.95134, 83.432321)"><g><path d="M 79.78125 -80.359375 L 59.390625 -31.6875 L 49.921875 -31.6875 L 49.921875 0 L 31.6875 0 L 31.6875 -31.6875 L 22.109375 -31.6875 L 1.9375 -80.359375 L 21.421875 -80.359375 L 38.40625 -35.90625 L 43.09375 -35.90625 L 60.1875 -80.359375 Z M 79.78125 -80.359375 "/></g></g></g><g fill="#000000" fill-opacity="1"><g transform="translate(384.66136, 83.432321)"><g><path d="M 4.109375 -40.234375 C 4.109375 -48.140625 5.78125 -55.242188 9.125 -61.546875 C 12.46875 -67.859375 17.253906 -72.816406 23.484375 -76.421875 C 29.710938 -80.035156 37.003906 -81.84375 45.359375 -81.84375 C 53.648438 -81.84375 60.910156 -80.035156 67.140625 -76.421875 C 73.367188 -72.816406 78.132812 -67.859375 81.4375 -61.546875 C 84.75 -55.242188 86.40625 -48.140625 86.40625 -40.234375 C 86.40625 -32.328125 84.75 -25.203125 81.4375 -18.859375 C 78.132812 -12.515625 73.367188 -7.535156 67.140625 -3.921875 C 60.910156 -0.316406 53.648438 1.484375 45.359375 1.484375 C 37.003906 1.484375 29.710938 -0.316406 23.484375 -3.921875 C 17.253906 -7.535156 12.46875 -12.515625 9.125 -18.859375 C 5.78125 -25.203125 4.109375 -32.328125 4.109375 -40.234375 Z M 22.90625 -40.234375 C 22.90625 -32.253906 24.804688 -26.0625 28.609375 -21.65625 C 32.410156 -17.25 37.992188 -15.046875 45.359375 -15.046875 C 52.660156 -15.046875 58.191406 -17.25 61.953125 -21.65625 C 65.710938 -26.0625 67.59375 -32.253906 67.59375 -40.234375 C 67.59375 -48.210938 65.710938 -54.40625 61.953125 -58.8125 C 58.191406 -63.21875 52.660156 -65.421875 45.359375 -65.421875 C 38.066406 -65.421875 32.5 -63.195312 28.65625 -58.75 C 24.820312 -54.3125 22.90625 -48.140625 22.90625 -40.234375 Z M 22.90625 -40.234375 "/></g></g></g><g fill="#000000" fill-opacity="1"><g transform="translate(475.619338, 83.432321)"><g><path d="M 5.015625 -80.359375 L 23.359375 -80.359375 L 23.359375 -37.953125 C 23.359375 -32.328125 23.71875 -27.9375 24.4375 -24.78125 C 25.164062 -21.632812 26.820312 -19.164062 29.40625 -17.375 C 31.988281 -15.59375 35.941406 -14.703125 41.265625 -14.703125 C 46.578125 -14.703125 50.546875 -15.59375 53.171875 -17.375 C 55.796875 -19.164062 57.488281 -21.65625 58.25 -24.84375 C 59.007812 -28.039062 59.390625 -32.410156 59.390625 -37.953125 L 59.390625 -80.359375 L 77.734375 -80.359375 L 77.734375 -29.859375 C 77.734375 -19.753906 74.617188 -12.019531 68.390625 -6.65625 C 62.160156 -1.300781 53.117188 1.375 41.265625 1.375 C 29.410156 1.375 20.40625 -1.300781 14.25 -6.65625 C 8.09375 -12.019531 5.015625 -19.753906 5.015625 -29.859375 Z M 5.015625 -80.359375 "/></g></g></g><g fill="#000000" fill-opacity="1"><g transform="translate(559.852387, 83.432321)"><g><path d="M 6.953125 -80.359375 L 41.03125 -80.359375 C 51.664062 -80.359375 60.132812 -78.816406 66.4375 -75.734375 C 72.75 -72.660156 75.90625 -67.0625 75.90625 -58.9375 C 75.90625 -53.082031 74.15625 -48.804688 70.65625 -46.109375 C 67.164062 -43.410156 62.953125 -41.679688 58.015625 -40.921875 L 58.015625 -36.359375 L 66.6875 -36.359375 C 69.875 -36.359375 72.320312 -35.40625 74.03125 -33.5 C 75.738281 -31.601562 76.59375 -28.910156 76.59375 -25.421875 L 76.59375 0 L 58.46875 0 L 58.46875 -28.265625 L 25.296875 -28.265625 L 25.296875 0 L 6.953125 0 Z M 41.03125 -44.21875 C 44.988281 -44.21875 48.101562 -44.425781 50.375 -44.84375 C 52.65625 -45.269531 54.441406 -46.222656 55.734375 -47.703125 C 57.023438 -49.179688 57.671875 -51.441406 57.671875 -54.484375 C 57.671875 -57.453125 57.003906 -59.65625 55.671875 -61.09375 C 54.347656 -62.539062 52.566406 -63.453125 50.328125 -63.828125 C 48.085938 -64.210938 44.988281 -64.40625 41.03125 -64.40625 L 25.296875 -64.40625 L 25.296875 -44.21875 Z M 41.03125 -44.21875 "/></g></g></g><g fill="#000000" fill-opacity="1"><g transform="translate(641.577749, 83.432321)"><g/></g></g><g fill="#000000" fill-opacity="1"><g transform="translate(674.06275, 83.432321)"><g><path d="M 1.140625 -80.359375 L 20.40625 -80.359375 L 41.71875 -4.671875 L 46.390625 -4.671875 L 67.484375 -80.359375 L 86.625 -80.359375 L 63.609375 0 L 24.28125 0 Z M 1.140625 -80.359375 "/></g></g></g><g fill="#000000" fill-opacity="1"><g transform="translate(762.399121, 83.432321)"><g><path d="M 60.0625 -80.359375 L 60.0625 -64.40625 L 41.828125 -64.40625 L 41.828125 -16.078125 L 60.0625 -16.078125 L 60.0625 0 L 5.359375 0 L 5.359375 -16.078125 L 23.59375 -16.078125 L 23.59375 -64.40625 L 5.359375 -64.40625 L 5.359375 -80.359375 Z M 60.0625 -80.359375 "/></g></g></g><g fill="#000000" fill-opacity="1"><g transform="translate(828.508952, 83.432321)"><g><path d="M 6.953125 -80.359375 L 36.46875 -80.359375 C 44.832031 -80.359375 52.203125 -79.332031 58.578125 -77.28125 C 64.960938 -75.226562 70.1875 -71.238281 74.25 -65.3125 C 78.320312 -59.382812 80.359375 -51.023438 80.359375 -40.234375 C 80.359375 -29.367188 78.320312 -20.972656 74.25 -15.046875 C 70.1875 -9.117188 64.960938 -5.128906 58.578125 -3.078125 C 52.203125 -1.023438 44.832031 0 36.46875 0 L 6.953125 0 Z M 36.46875 -16.078125 C 42.25 -16.078125 46.867188 -16.53125 50.328125 -17.4375 C 53.785156 -18.351562 56.59375 -20.539062 58.75 -24 C 60.914062 -27.457031 62 -32.867188 62 -40.234375 C 62 -47.523438 60.894531 -52.921875 58.6875 -56.421875 C 56.488281 -59.921875 53.679688 -62.125 50.265625 -63.03125 C 46.847656 -63.945312 42.25 -64.40625 36.46875 -64.40625 L 25.1875 -64.40625 L 25.1875 -16.078125 Z M 36.46875 -16.078125 "/></g></g></g><g fill="#000000" fill-opacity="1"><g transform="translate(912.969905, 83.432321)"><g><path d="M 6.953125 -80.359375 L 68.953125 -80.359375 L 68.953125 -64.40625 L 25.296875 -64.40625 L 25.296875 -47.875 L 63.265625 -47.875 L 63.265625 -32.71875 L 25.296875 -32.71875 L 25.296875 -15.953125 L 68.953125 -15.953125 L 68.953125 0 L 6.953125 0 Z M 6.953125 -80.359375 "/></g></g></g><g fill="#000000" fill-opacity="1"><g transform="translate(984.892801, 83.432321)"><g><path d="M 4.109375 -40.234375 C 4.109375 -48.140625 5.78125 -55.242188 9.125 -61.546875 C 12.46875 -67.859375 17.253906 -72.816406 23.484375 -76.421875 C 29.710938 -80.035156 37.003906 -81.84375 45.359375 -81.84375 C 53.648438 -81.84375 60.910156 -80.035156 67.140625 -76.421875 C 73.367188 -72.816406 78.132812 -67.859375 81.4375 -61.546875 C 84.75 -55.242188 86.40625 -48.140625 86.40625 -40.234375 C 86.40625 -32.328125 84.75 -25.203125 81.4375 -18.859375 C 78.132812 -12.515625 73.367188 -7.535156 67.140625 -3.921875 C 60.910156 -0.316406 53.648438 1.484375 45.359375 1.484375 C 37.003906 1.484375 29.710938 -0.316406 23.484375 -3.921875 C 17.253906 -7.535156 12.46875 -12.515625 9.125 -18.859375 C 5.78125 -25.203125 4.109375 -32.328125 4.109375 -40.234375 Z M 22.90625 -40.234375 C 22.90625 -32.253906 24.804688 -26.0625 28.609375 -21.65625 C 32.410156 -17.25 37.992188 -15.046875 45.359375 -15.046875 C 52.660156 -15.046875 58.191406 -17.25 61.953125 -21.65625 C 65.710938 -26.0625 67.59375 -32.253906 67.59375 -40.234375 C 67.59375 -48.210938 65.710938 -54.40625 61.953125 -58.8125 C 58.191406 -63.21875 52.660156 -65.421875 45.359375 -65.421875 C 38.066406 -65.421875 32.5 -63.195312 28.65625 -58.75 C 24.820312 -54.3125 22.90625 -48.140625 22.90625 -40.234375 Z M 22.90625 -40.234375 "/></g></g></g></g></g></g></g></g></g></svg>