<?xml version="1.0" encoding="utf-8"?>
<!DOCTYPE svg PUBLIC "-//W3C//DTD SVG 1.0//EN" "http://www.w3.org/TR/2001/REC-SVG-20010904/DTD/svg10.dtd">
<svg version="1.0" xmlns="http://www.w3.org/2000/svg" width="1200px" height="628px" viewBox="0 0 1200 628" preserveAspectRatio="xMidYMid meet">
 <g fill="#000000">
  <path d="M298.9 514.6 c-2 -1.4 -4.1 -3.7 -4.8 -5.3 -0.8 -2.1 -1.1 -52.7 -0.9 -202.1 l0.3 -199.4 3.7 -3.4 3.8 -3.4 44.7 0 c42.1 0 45 0.1 47.9 1.9 1.7 1 3.8 3.4 4.7 5.4 1.6 3.2 1.7 18.6 1.7 200.9 0 195.1 0 197.3 -2 200.6 -1.1 1.8 -3.4 4.1 -5.2 5.2 -3.2 1.9 -5.2 2 -46.8 2 l-43.5 0 -3.6 -2.4z"/>
  <path d="M1031.3 501.5 c-19.9 -5.6 -31.3 -21.1 -31.3 -42.8 0 -16.3 8 -30.7 20.7 -37.5 7.8 -4.1 13.1 -5.4 22.4 -5.4 18.3 0 31.8 8.2 39.1 23.7 3.2 6.8 3.3 7.4 3.3 19.5 0 10.6 -0.4 13.3 -2.3 18 -4.6 11.4 -13.7 20.1 -24.7 23.6 -7.1 2.3 -20.8 2.7 -27.2 0.9z m20.9 -16.5 c9.1 -2.6 13.9 -10.2 14.6 -23.1 0.9 -18.1 -5.7 -27.8 -20.1 -29.5 -18 -2.1 -28.8 9.7 -27.4 29.8 0.8 12.2 5.9 20.2 14.4 22.8 4 1.2 14.1 1.2 18.5 0z"/>
  <path d="M690.5 500.8 c-1.4 -4.2 -23.5 -81.8 -23.5 -82.7 0 -0.7 3.2 -1.1 9.5 -1.1 l9.4 0 1 3.8 c0.6 2 5.7 20 11.3 40 l10.1 36.2 3.1 0 3.1 0 11 -39.8 11 -39.7 9.9 -0.3 c7.7 -0.2 9.7 0 9.4 1 -0.3 0.7 -5.8 19.9 -12.3 42.6 l-11.8 41.2 -20.4 0 c-15.4 0 -20.5 -0.3 -20.8 -1.2z"/>
  <path d="M764 493.5 l0 -8.5 10 0 10 0 0 -26 0 -26 -10 0 -10 0 0 -8 0 -8 29 0 29 0 0 8 0 8 -10 0 -10 0 0 26 0 26 10 0 10 0 0 8.5 0 8.5 -29 0 -29 0 0 -8.5z"/>
  <path d="M836 459.5 l0 -42.7 23.3 0.4 c25.7 0.6 30.4 1.4 39 7.1 10.9 7.2 15.2 18.6 14.5 38.2 -0.3 10.3 -0.8 12.8 -3 17.6 -5 10.9 -13.1 17.1 -25.8 19.9 -3 0.6 -15.1 1.4 -26.7 1.7 l-21.3 0.6 0 -42.8z m46.1 24.4 c4.5 -1.5 9.6 -6.4 11.1 -10.8 0.7 -2 1.3 -8.3 1.3 -14.1 0 -20.8 -5.8 -25.9 -29.2 -26 l-10.3 0 0 26 0 26 11.9 0 c6.5 0 13.3 -0.5 15.2 -1.1z"/>
  <path d="M926 459.5 l0 -42.5 32.5 0 32.5 0 0 8 0 8 -23 0 -23 0 0 9 0 9 20 0 20 0 0 8 0 8 -20 0 -20 0 0 9 0 9 23 0 23 0 0 8.5 0 8.5 -32.5 0 -32.5 0 0 -42.5z"/>
  <path d="M137.5 482.1 c-4 -1 -6.6 -2.7 -9 -5.9 -2 -2.7 -2 -4.5 -2.3 -166.2 -0.2 -156.9 -0.1 -163.6 1.6 -167 1.2 -2.2 3.5 -4.3 6.2 -5.7 4.4 -2.3 4.9 -2.3 46 -2.3 41.1 0 41.6 0 46 2.3 2.7 1.4 5 3.5 6.2 5.7 1.7 3.4 1.8 10.1 1.6 167 -0.3 161.7 -0.3 163.5 -2.3 166.2 -4.8 6.4 -3.9 6.3 -49.5 6.5 -22.8 0.1 -42.8 -0.2 -44.5 -0.6z"/>
  <path d="M468.7 481.6 c-2 -0.8 -4.4 -2 -5.3 -2.7 -4.6 -3.8 -4.4 3.5 -4.4 -170.2 l0 -163.4 2.3 -3.4 c4.4 -6.5 3.6 -6.4 51.9 -6.4 42.3 0 43.7 0.1 46.4 2 1.5 1.1 3.5 3.6 4.5 5.5 1.8 3.3 1.9 9.7 1.9 165.8 0 179.8 0.5 166.6 -6.4 171.5 -3.1 2.2 -3.4 2.2 -45.1 2.4 -33.5 0.2 -42.8 0 -45.8 -1.1z"/>
  <path d="M782.3 332.5 c-19.9 -5.6 -31.3 -21.1 -31.3 -42.8 0 -16.3 8 -30.7 20.7 -37.5 7.8 -4.1 13.1 -5.4 22.4 -5.4 18.3 0 31.8 8.2 39.1 23.7 3.2 6.8 3.3 7.4 3.3 19.5 0 10.6 -0.4 13.3 -2.3 18 -4.6 11.4 -13.7 20.1 -24.7 23.6 -7.1 2.3 -20.8 2.7 -27.2 0.9z m20.9 -16.5 c9.1 -2.6 13.9 -10.2 14.6 -23.1 0.9 -18.1 -5.7 -27.8 -20.1 -29.5 -18 -2.1 -28.8 9.7 -27.4 29.8 0.8 12.2 5.9 20.2 14.4 22.8 4 1.2 14.1 1.2 18.5 0z"/>
  <path d="M873.5 332.6 c-10.5 -2.6 -17.3 -7.6 -21.7 -15.9 -2.2 -4.1 -2.3 -5.2 -2.6 -36.4 l-0.3 -32.3 9 0 8.9 0 0.4 29.3 c0.3 27.2 0.4 29.4 2.3 32.7 3.3 5.5 7.7 7.5 16.5 7.5 9.1 0 14.8 -2.2 17.6 -6.8 1.7 -2.9 1.9 -5.7 2.2 -32.9 l0.3 -29.8 9.5 0 9.5 0 -0.3 31.3 c-0.3 30.1 -0.4 31.4 -2.6 36.2 -4.2 9.1 -11 14.3 -22.2 16.9 -7.7 1.9 -19.5 1.9 -26.5 0.2z"/>
  <path d="M699 316 l0 -17 -5.3 0 -5.3 0 -10.2 -24.7 c-5.6 -13.7 -10.2 -25.1 -10.2 -25.5 0 -0.5 4.2 -0.8 9.4 -0.8 l9.4 0 4.6 11.8 c2.5 6.4 6.5 16.9 8.9 23.2 4.2 10.9 4.6 11.5 7.4 11.8 3 0.3 3.1 0.1 6.8 -9.5 2.1 -5.4 6.2 -15.9 9 -23.3 l5.2 -13.5 9.7 -0.3 c5.3 -0.1 9.6 0.1 9.6 0.5 0 0.4 -4.7 11.8 -10.3 25.3 l-10.3 24.5 -5.2 0.3 -5.2 0.3 0 17 0 16.9 -9 0 -9 0 0 -17z"/>
  <path d="M940 290.5 l0 -42.5 21.7 0 c28.4 0 37 1.5 44.3 7.7 4.2 3.5 6 7.9 6 14.8 0 9.1 -2.9 13.1 -12.7 17 -4.7 2 -5.8 2.8 -5.8 4.7 0 2.1 0.5 2.3 7.3 2.8 6.5 0.4 7.7 0.8 9.8 3.3 2.3 2.7 2.4 3.3 2.4 18.8 l0 15.9 -9 0 -9 0 0 -15 0 -15 -18 0 -18 0 0 15 0 15 -9.5 0 -9.5 0 0 -42.5z m51.1 -7.1 c2.9 -2.9 3.6 -10.1 1.5 -14.2 -2.2 -4.2 -6.3 -5.2 -21.3 -5.2 l-12.3 0 0 11.1 0 11 15 -0.3 c13.7 -0.3 15.1 -0.5 17.1 -2.4z"/>
  <path d="M672 122.5 l0 -42.5 18.9 0 18.9 0 0.5 2.8 c0.3 1.5 2.9 19.5 5.8 40 l5.2 37.2 2.9 0 c1.5 0 2.8 -0.1 2.9 -0.2 0 -0.2 2.6 -18.1 5.8 -39.8 l5.7 -39.5 18.7 -0.3 18.7 -0.2 0 42.5 0 42.5 -9.5 0 -9.5 0 0 -28 c0 -26.2 0.7 -35.9 3.6 -50.3 0.5 -2.5 0.3 -2.7 -2.4 -2.7 l-2.9 0 -2.6 16.3 c-1.4 8.9 -4.3 27.1 -6.4 40.5 l-3.8 24.2 -18.4 -0.2 -18.5 -0.3 -6.3 -39.5 c-3.4 -21.7 -6.2 -39.8 -6.3 -40.2 0 -0.7 -6 -1.2 -6 -0.5 0 0.1 0.9 5.4 2 11.7 1.7 9.7 2 16.1 2 40.3 l0 28.7 -9.5 0 -9.5 0 0 -42.5z"/>
  <path d="M797.4 122.5 l12.1 -42.5 20.6 0 20.6 0 11.8 41.3 c6.5 22.6 12 41.8 12.3 42.5 0.3 0.9 -2 1.2 -9.5 1.2 l-9.9 0 -2.8 -10.7 c-1.6 -6 -3.3 -12.3 -3.8 -14 l-0.9 -3.3 -17.9 0 -17.9 0 -0.9 3.3 c-0.5 1.7 -2.2 8 -3.8 14 l-2.8 10.7 -9.7 0 -9.6 0 12.1 -42.5z m45.2 -3.2 c-0.2 -1 -2.3 -8.5 -4.6 -16.8 -2.2 -8.2 -4.3 -15.8 -4.6 -16.7 -0.7 -2.4 -6.1 -2.4 -6.8 0 -0.3 0.9 -2.4 8.5 -4.6 16.7 -2.3 8.3 -4.4 15.8 -4.6 16.8 -0.5 1.6 0.6 1.7 12.6 1.7 12 0 13.1 -0.1 12.6 -1.7z"/>
  <path d="M884 122.4 l0 -42.6 22.8 0.4 c20.6 0.4 23.2 0.7 28.5 2.7 6.5 2.5 12 6.9 14.2 11.2 4.3 8.2 3.8 25.3 -0.9 32.8 -3.3 5.1 -5.4 6.8 -12.7 9.7 -5.4 2.3 -8.4 2.7 -19.6 3.2 l-13.3 0.5 0 12.3 0 12.4 -9.5 0 -9.5 0 0 -42.6z m44.7 -0.9 c3.9 -2.3 5.3 -5.3 5.3 -11.5 0 -10.7 -3.6 -13.2 -19.7 -13.8 l-11.3 -0.5 0 14.3 0 14.3 11.3 -0.5 c8.6 -0.3 12 -0.8 14.4 -2.3z"/>
 </g>
</svg>