<?xml version="1.0" encoding="utf-8"?>
<!DOCTYPE svg PUBLIC "-//W3C//DTD SVG 1.0//EN" "http://www.w3.org/TR/2001/REC-SVG-20010904/DTD/svg10.dtd">
<svg version="1.0" xmlns="http://www.w3.org/2000/svg" width="500px" height="500px" viewBox="0 0 500 500" preserveAspectRatio="xMidYMid meet">
 <g fill="#000000">
  <path d="M206 462.30 c-4.20 -1.05 -7.70 -3.70 -10.05 -7.55 l-1.20 -2 0 -202.75 0 -202.75 1.25 -2 c2.60 -4.20 5.15 -6.15 9.95 -7.70 2.40 -0.75 85.75 -0.75 88.10 0 4.70 1.50 8.05 4.35 10.10 8.45 l1.10 2.25 0 202 0 202 -1.40 2.35 c-2.45 4.20 -5.45 6.50 -10 7.70 -3.45 0.90 -84.25 0.95 -87.85 0z"/>
  <path d="M34.70 425.80 c-3.35 -1.55 -6.20 -4.20 -7.75 -7.10 l-1.20 -2.40 0 -166.25 c0 -161.35 0.05 -166.35 0.95 -168.25 1.40 -3 4.70 -6.20 7.65 -7.60 l2.70 -1.20 43.95 0 43.95 0 2.70 1.20 c2.95 1.40 6.25 4.60 7.65 7.60 0.90 1.90 0.95 6.90 0.95 168.45 l0 166.50 -1.20 2 c-2.40 3.95 -5.60 6.60 -9.35 7.65 -1.55 0.45 -13.35 0.60 -45.25 0.55 l-43.20 0 -2.55 -1.15z"/>
  <path d="M372.65 425.95 c-2.80 -1.10 -6.55 -4.35 -7.85 -6.85 -0.40 -0.80 -1 -3.05 -1.30 -4.95 -0.85 -5.40 -0.45 -328.80 0.40 -331.25 1.15 -3.40 4.40 -6.85 7.90 -8.45 l3.20 -1.45 43.70 0 43.75 0 2.90 1.25 c3.25 1.45 6.05 4.20 7.60 7.50 l1.05 2.25 0 166 0 166 -1.05 2.25 c-1.20 2.55 -3.85 5.40 -6.15 6.65 -4 2.10 -3.20 2.10 -48.30 2.05 -42.05 0 -43.30 -0.05 -45.85 -1z"/>
 </g>
</svg>